<svg xmlns="http://www.w3.org/2000/svg" width="44.748" height="44.748" viewBox="0 0 44.748 44.748">
  <path id="iconmonstr-twitter-4" d="M22.374,0A22.374,22.374,0,1,0,44.748,22.374,22.375,22.375,0,0,0,22.374,0Zm11.31,17.983A15.229,15.229,0,0,1,10.255,31.506a10.774,10.774,0,0,0,7.928-2.217,5.367,5.367,0,0,1-5-3.72,5.371,5.371,0,0,0,2.42-.091,5.363,5.363,0,0,1-4.3-5.319,5.342,5.342,0,0,0,2.426.669,5.363,5.363,0,0,1-1.658-7.15,15.2,15.2,0,0,0,11.038,5.6,5.359,5.359,0,0,1,9.127-4.885,10.682,10.682,0,0,0,3.4-1.3,5.377,5.377,0,0,1-2.355,2.963,10.683,10.683,0,0,0,3.075-.845A10.749,10.749,0,0,1,33.684,17.983Z" fill="#fff"/>
</svg>
