<svg xmlns="http://www.w3.org/2000/svg" width="44.748" height="44.748" viewBox="0 0 44.748 44.748">
  <path id="iconmonstr-instagram-14" d="M27.649,11.75c-1.376-.063-1.79-.075-5.275-.075s-3.9.013-5.273.075c-3.541.162-5.189,1.838-5.351,5.351-.062,1.376-.076,1.788-.076,5.273s.015,3.9.076,5.275c.162,3.5,1.8,5.189,5.351,5.351,1.374.062,1.788.076,5.273.076s3.9-.013,5.275-.076c3.541-.16,5.187-1.842,5.351-5.351.062-1.376.075-1.79.075-5.275s-.013-3.9-.075-5.273c-.164-3.511-1.814-5.189-5.351-5.351ZM22.374,29.077a6.7,6.7,0,1,1,6.7-6.7A6.7,6.7,0,0,1,22.374,29.077Zm6.968-12.1a1.566,1.566,0,1,1,1.566-1.566A1.566,1.566,0,0,1,29.342,16.975Zm-2.618,5.4a4.35,4.35,0,1,1-4.35-4.35A4.35,4.35,0,0,1,26.724,22.374ZM22.374,0A22.374,22.374,0,1,0,44.748,22.374,22.375,22.375,0,0,0,22.374,0ZM35.347,27.755c-.214,4.745-2.856,7.374-7.59,7.592-1.393.063-1.838.078-5.383.078s-3.988-.015-5.381-.078C12.25,35.129,9.619,32.5,9.4,27.755c-.063-1.391-.078-1.837-.078-5.381s.015-3.988.078-5.381c.218-4.743,2.851-7.374,7.592-7.59,1.393-.065,1.837-.08,5.381-.08s3.99.015,5.383.08c4.745.218,7.378,2.856,7.59,7.59.063,1.393.078,1.837.078,5.381S35.411,26.364,35.347,27.755Z" fill="#5f6368"/>
</svg>
