<svg xmlns="http://www.w3.org/2000/svg" width="24" height="18" viewBox="0 0 24 18">
  <path id="iconmonstr-banknote-15" d="M12.164,7.165a1.594,1.594,0,0,0-1.231,2.328,2.836,2.836,0,0,0,3.094,1.6A1.585,1.585,0,0,0,15.1,8.8a2.859,2.859,0,0,0-2.932-1.636Zm1.484,3,.1.229-.219.045-.1-.219a1.7,1.7,0,0,1-.719-.027L12.652,9.8a1.927,1.927,0,0,0,.623.02l.125-.041c.221-.109.152-.387-.176-.453-.245-.054-.893-.014-1.135-.552a.537.537,0,0,1,.356-.766l-.108-.239.217-.045.1.229a2.257,2.257,0,0,1,.563-.017l.087.383a1.634,1.634,0,0,0-.512-.008l-.06.016c-.309.082-.21.375.064.446.453.1.994.139,1.208.612a.535.535,0,0,1-.36.774ZM23.96,11.22,20.194,3C14.016,7,7.187,2.682,2.243,7.454l3.765,8.22c5.3-4.492,12.519-.238,17.952-4.454Zm-2.8-1.852a5.34,5.34,0,0,0-.819,1.741c-3.593,1.094-7.891-.2-12.018,1.241a4.7,4.7,0,0,0-2.189-.556L5,9.307a4.9,4.9,0,0,0,.918-2.094c3.4-1.226,7.652.155,12.2-1.4a5.02,5.02,0,0,0,1.73.721l1.315,2.835ZM24,15.01C17.143,18.951,11.6,13.586,4.5,21L0,11.03,1.4,9.567l3.807,8.406,0,.007c7.445-5.595,11.2-1.176,18.109-4.563.294.648.565,1.332.684,1.593Z" transform="translate(0 -3)" fill="#5f6368"/>
</svg>
