<svg xmlns="http://www.w3.org/2000/svg" width="45.173" height="85.75" viewBox="0 0 45.173 85.75">
  <g id="Group_72" data-name="Group 72" transform="translate(-937.414 -820.75)">
    <g id="Group_71" data-name="Group 71">
      <g id="arrow-down-sign-to-navigate" transform="translate(937.414 820.75)">
        <path id="Path_1" data-name="Path 1" d="M22.586,25.75a3.154,3.154,0,0,1-2.236-.926L.927,5.4A3.163,3.163,0,0,1,5.4.926L22.586,18.113,39.772.927A3.163,3.163,0,0,1,44.246,5.4L24.823,24.824A3.154,3.154,0,0,1,22.586,25.75Z" transform="translate(0 0)" fill="#f8f9fa"/>
      </g>
    </g>
    <g id="arrow-down-sign-to-navigate-2" data-name="arrow-down-sign-to-navigate" transform="translate(937.414 850.75)" opacity="0.7">
      <path id="Path_1-2" data-name="Path 1" d="M22.586,25.75a3.154,3.154,0,0,1-2.236-.926L.927,5.4A3.163,3.163,0,0,1,5.4.926L22.586,18.113,39.772.927A3.163,3.163,0,0,1,44.246,5.4L24.823,24.824A3.154,3.154,0,0,1,22.586,25.75Z" transform="translate(0 0)" fill="#f8f9fa"/>
    </g>
    <g id="arrow-down-sign-to-navigate-3" data-name="arrow-down-sign-to-navigate" transform="translate(937.414 880.75)" opacity="0.4">
      <path id="Path_1-3" data-name="Path 1" d="M22.586,25.75a3.154,3.154,0,0,1-2.236-.926L.927,5.4A3.163,3.163,0,0,1,5.4.926L22.586,18.113,39.772.927A3.163,3.163,0,0,1,44.246,5.4L24.823,24.824A3.154,3.154,0,0,1,22.586,25.75Z" transform="translate(0 0)" fill="#f8f9fa"/>
    </g>
  </g>
</svg>
